<svg xmlns="http://www.w3.org/2000/svg" version="1.1" xmlns:xlink="http://www.w3.org/1999/xlink" xmlns:svgjs="http://svgjs.dev/svgjs" width="1500" height="1500" viewBox="0 0 1500 1500"><rect width="1500" height="1500" fill="#ffffff"></rect><g transform="matrix(0.6666666666666666,0,0,0.6666666666666666,250.96129640257345,192.3333333333336)"><svg viewBox="0 0 251 280" data-background-color="#ffffff" preserveAspectRatio="xMidYMid meet" height="1673" width="1500" xmlns="http://www.w3.org/2000/svg" xmlns:xlink="http://www.w3.org/1999/xlink"><g id="tight-bounds" transform="matrix(1,0,0,1,-0.24128539704594232,-2.842170943040401e-14)"><svg viewBox="0 0 251.48257079409186 280" height="280" width="251.48257079409186"><g><svg viewBox="0 0 278.2696 309.8246043611325" height="280" width="251.48257079409186"><g><svg viewBox="0 0 278.2696 309.8246043611325" height="309.8246043611325" width="278.2696"><g id="textblocktransform"><svg viewBox="0 0 278.2696 309.8246043611325" height="309.8246043611325" width="278.2696" id="textblock"><g><svg viewBox="0 0 278.2696 278.2696" height="278.2696" width="278.2696"><g transform="matrix(1,0,0,1,89.94321971048298,93.20722135933732)"><svg viewBox="0 0 98.38316057903407 91.85515728132538" height="91.85515728132538" width="98.38316057903407"><g id="icon-0"><svg xmlns="http://www.w3.org/2000/svg" xmlns:xlink="http://www.w3.org/1999/xlink" version="1.1" x="0" y="0" viewBox="0 -0.03171479540998767 100 93.36471479540998" enable-background="new 0 0 100 93.333" xml:space="preserve" width="98.38316057903407" height="91.85515728132538" class="icon-xg-0" data-fill-palette-color="accent" id="xg-0"><g fill="#3e92cc" data-fill-palette-color="accent"><circle cx="47.778" cy="8.889" r="8.9" fill="#3e92cc" data-fill-palette-color="accent"></circle></g><g fill="#3e92cc" data-fill-palette-color="accent"><circle cx="22.222" cy="51.111" r="11" fill="#3e92cc" data-fill-palette-color="accent"></circle></g><g fill="#3e92cc" data-fill-palette-color="accent"><circle cx="77.778" cy="51.111" r="11" fill="#3e92cc" data-fill-palette-color="accent"></circle></g><g fill="#3e92cc" data-fill-palette-color="accent"><path d="M62.551 16.541c-1.297 1.307-2.072 4.206-0.766 5.503 1.307 1.297 4.2 0.501 5.497-0.806 1.297-1.307 1.289-3.417-0.017-4.714C65.959 15.226 63.848 15.234 62.551 16.541z" fill="#3e92cc" data-fill-palette-color="accent"></path></g><g fill="#3e92cc" data-fill-palette-color="accent"><path d="M60.22 23.62c-0.977-0.97-1.345-2.259-1.318-3.578C57.985 20.003 56.893 20 55.556 20H41.111c-7.778 0-7.778 0-7.778 7.778 0 0.835 0.002 1.564 0.011 2.23C33.391 30.007 33.438 30 33.484 30c1.387 0 2.574 0.452 3.435 1.306 1.136 1.128 1.452 2.687 1.274 4.222 0.829 0.024 1.782 0.027 2.918 0.027h14.444c7.778 0 7.778 0 7.778-7.778 0-1.119-0.003-2.061-0.026-2.881C62.074 24.826 61.006 24.4 60.22 23.62z" fill="#3e92cc" data-fill-palette-color="accent"></path></g><path d="M22.222 64.444c-2.982 0-5.729-0.996-7.953-2.657C8.22 62.597 2.045 67.967 2.045 74.563L0 93.333l23.523-0.37 2.045-18.333c0.621-3.708-0.671-7.642-3.217-10.192C22.308 64.438 22.266 64.444 22.222 64.444z" fill="#3e92cc" data-fill-palette-color="accent"></path><path d="M97.955 74.563c0-6.596-6.175-11.966-12.224-12.776-2.223 1.66-4.97 2.657-7.953 2.657-0.044 0-0.086-0.006-0.129-0.007-2.547 2.55-3.838 6.484-3.217 10.192l2.045 18.333L100 93.333 97.955 74.563z" fill="#3e92cc" data-fill-palette-color="accent"></path><path d="M54.202 82.077c0.25 0.616 0.025 1.167-0.529 1.167h-8.024c-0.554 0-0.779-0.551-0.529-1.167l0 0c0.225-0.555 0.764-0.966 1.222-0.966h6.637C53.438 81.111 53.976 81.522 54.202 82.077L54.202 82.077z" fill="#3e92cc" data-fill-palette-color="accent"></path><path d="M55.599 86.017c0.327 0.847 0.033 1.605-0.69 1.605H44.431c-0.723 0-1.017-0.758-0.69-1.605l0 0c0.294-0.763 0.997-1.328 1.596-1.328h8.666C54.601 84.689 55.304 85.254 55.599 86.017L55.599 86.017z" fill="#3e92cc" data-fill-palette-color="accent"></path><path d="M57.806 90.372c0.425 0.847 0.043 1.605-0.897 1.605H43.292c-0.94 0-1.322-0.758-0.897-1.605l0 0c0.383-0.763 1.296-1.328 2.074-1.328h11.263C56.509 89.045 57.423 89.609 57.806 90.372L57.806 90.372z" fill="#3e92cc" data-fill-palette-color="accent"></path><path d="M66.223 82.322c0.25 0.616 0.025 1.167-0.529 1.167h-8.024c-0.554 0-0.779-0.551-0.529-1.167l0 0c0.226-0.555 0.764-0.966 1.222-0.966h6.637C65.459 81.356 65.998 81.767 66.223 82.322L66.223 82.322z" fill="#3e92cc" data-fill-palette-color="accent"></path><path d="M69.974 86.262c0.336 0.847 0.034 1.605-0.709 1.605H58.502c-0.743 0-1.045-0.758-0.709-1.605l0 0c0.302-0.763 1.025-1.328 1.639-1.328h8.902C68.949 84.934 69.672 85.499 69.974 86.262L69.974 86.262z" fill="#3e92cc" data-fill-palette-color="accent"></path><path d="M73.356 90.617c0.369 0.847 0.037 1.605-0.778 1.605H60.765c-0.816 0-1.147-0.758-0.778-1.605l0 0c0.332-0.763 1.125-1.328 1.799-1.328h9.771C72.232 89.289 73.024 89.854 73.356 90.617L73.356 90.617z" fill="#3e92cc" data-fill-palette-color="accent"></path><path d="M41.98 82.322c0.25 0.616 0.025 1.167-0.529 1.167h-8.024c-0.554 0-0.779-0.551-0.529-1.167l0 0c0.225-0.555 0.764-0.966 1.222-0.966h6.637C41.216 81.356 41.754 81.767 41.98 82.322L41.98 82.322z" fill="#3e92cc" data-fill-palette-color="accent"></path><path d="M41.119 86.262c0.306 0.847 0.031 1.605-0.647 1.605h-9.818c-0.678 0-0.953-0.758-0.647-1.605l0 0c0.276-0.763 0.935-1.328 1.495-1.328h8.12C40.185 84.934 40.843 85.499 41.119 86.262L41.119 86.262z" fill="#3e92cc" data-fill-palette-color="accent"></path><path d="M40.012 90.617c0.367 0.847 0.037 1.605-0.775 1.605h-11.77c-0.813 0-1.142-0.758-0.775-1.605l0 0c0.331-0.763 1.121-1.328 1.793-1.328h9.735C38.892 89.289 39.682 89.854 40.012 90.617L40.012 90.617z" fill="#3e92cc" data-fill-palette-color="accent"></path><g fill="#3e92cc" data-fill-palette-color="accent"><path d="M34.588 38.386c1.297-1.307 2.072-4.206 0.766-5.503s-4.2-0.501-5.497 0.806c-1.297 1.307-1.289 3.417 0.017 4.714S33.291 39.692 34.588 38.386z" fill="#3e92cc" data-fill-palette-color="accent"></path></g><rect x="37.778" y="37.778" width="22.222" height="10" fill="#3e92cc" data-fill-palette-color="accent"></rect></svg></g></svg></g><g id="text-0"><path d="M35.048 93.985l-5.583 16.007-25.968-9.056 5.583-16.007 2.858 0.997-4.346 12.46 8.659 3.02 3.336-9.565 2.754 0.961-3.335 9.565 8.838 3.082 4.346-12.461zM32.19 92.988l-0.128 3.278-3.434-1.801c-0.203-0.127-0.322-0.271-0.358-0.431-0.042-0.163-0.029-0.342 0.039-0.537v0l0.579-1.66zM13.809 89.297l-3.81-0.725 1.939-2.646 3.301 1.151-0.579 1.66c-0.068 0.195-0.169 0.343-0.303 0.445-0.128 0.104-0.311 0.142-0.548 0.115zM2.59 103.54l1.286-3.689 2.682 1.38-1.523 2.516c-0.118 0.177-0.254 0.292-0.406 0.345-0.152 0.053-0.339 0.041-0.559-0.036v0zM29.844 108.908l-1.287 3.688-1.481-0.517c-0.22-0.077-0.38-0.185-0.478-0.325-0.099-0.14-0.127-0.312-0.085-0.517v0l0.363-2.92z" fill="#3e92cc" data-fill-palette-color="primary"></path><path d="M44.043 79.5l-5.555 8.649-23.14-14.862 5.555-8.649c1.094-1.704 2.373-3.079 3.836-4.125 1.467-1.052 3.022-1.748 4.665-2.086v0c1.66-0.366 3.375-0.362 5.143 0.015 1.763 0.373 3.516 1.119 5.259 2.238v0c1.726 1.108 3.125 2.387 4.197 3.835 1.072 1.448 1.79 3.006 2.153 4.671v0c0.375 1.634 0.39 3.337 0.042 5.109-0.343 1.766-1.062 3.501-2.155 5.205zM19.924 71.763l18.047 11.59 3.525-5.489c1.094-1.704 1.666-3.402 1.717-5.094 0.06-1.695-0.372-3.302-1.296-4.822-0.92-1.525-2.308-2.883-4.163-4.074v0c-1.849-1.188-3.664-1.886-5.445-2.097-1.777-0.215-3.424 0.057-4.94 0.816-1.519 0.75-2.825 1.977-3.919 3.681v0zM39.109 87.183l-2.111 3.286-1.32-0.847c-0.196-0.126-0.326-0.269-0.39-0.429-0.064-0.16-0.051-0.334 0.039-0.521v0l1.033-2.756zM13.858 75.607l2.111-3.286 2.286 1.967-2.067 2.091c-0.156 0.145-0.315 0.225-0.476 0.241-0.16 0.016-0.339-0.039-0.535-0.165v0z" fill="#3e92cc" data-fill-palette-color="primary"></path><path d="M63.756 57.191v0c-1.646 1.496-3.402 2.436-5.269 2.818-1.866 0.383-3.699 0.258-5.498-0.374-1.795-0.628-3.407-1.727-4.836-3.299v0l-11.249-12.373 2.749-2.5 11.223 12.343c1.017 1.119 2.134 1.926 3.35 2.423 1.216 0.506 2.454 0.645 3.714 0.417 1.261-0.237 2.458-0.871 3.591-1.902v0c1.133-1.03 1.875-2.155 2.226-3.373 0.35-1.209 0.335-2.438-0.044-3.687-0.374-1.253-1.076-2.446-2.107-3.579v0l-11.25-12.373 2.75-2.5 11.249 12.373c1.461 1.606 2.415 3.34 2.865 5.199 0.445 1.855 0.379 3.684-0.198 5.486-0.572 1.807-1.66 3.44-3.266 4.901zM34.856 45.824l2.898-2.634 1.699 2.492-2.539 1.485c-0.189 0.099-0.362 0.136-0.521 0.109-0.164-0.022-0.324-0.119-0.482-0.291v0zM38.833 42.209l2.897-2.635 1.055 1.161c0.157 0.172 0.238 0.341 0.245 0.506 0.011 0.161-0.042 0.33-0.159 0.509v0l-1.718 2.386zM48.309 33.593l2.897-2.634 1.699 2.492-2.539 1.485c-0.189 0.099-0.362 0.136-0.521 0.109-0.164-0.022-0.324-0.119-0.481-0.291v0zM52.285 29.978l2.898-2.635 1.055 1.161c0.157 0.172 0.238 0.341 0.244 0.506 0.011 0.161-0.042 0.33-0.158 0.509v0l-1.719 2.386z" fill="#3e92cc" data-fill-palette-color="primary"></path><path d="M92.828 37.71l-3.502 1.359-9.946-25.64 3.502-1.359 4.44 11.446 13.812-5.358-4.44-11.446 3.502-1.358 9.946 25.64-3.502 1.358-4.523-11.66-13.812 5.358zM90.397 38.653l-3.641 1.413-0.567-1.462c-0.084-0.217-0.105-0.409-0.063-0.576 0.043-0.167 0.155-0.3 0.338-0.399v0l2.458-1.618zM95.408 36.709l-3.651 1.417-0.683-2.95 2.906-0.463c0.196-0.047 0.369-0.025 0.519 0.067 0.144 0.094 0.258 0.25 0.342 0.467v0zM76.809 14.426l3.642-1.413 0.689 2.937-2.903 0.472c-0.212 0.025-0.387-0.003-0.526-0.085-0.139-0.082-0.251-0.231-0.334-0.449v0zM81.811 12.486l3.651-1.417 0.567 1.463c0.084 0.217 0.103 0.403 0.055 0.557-0.054 0.157-0.164 0.296-0.331 0.417v0l-2.462 1.609zM107.674 31.951l-3.651 1.416-0.567-1.462c-0.084-0.217-0.102-0.41-0.054-0.579 0.043-0.167 0.155-0.3 0.339-0.399v0l2.458-1.618zM112.712 29.997l-3.641 1.412-0.693-2.946 2.906-0.463c0.202-0.05 0.375-0.028 0.519 0.067 0.144 0.094 0.258 0.25 0.342 0.467v0zM94.077 7.727l3.65-1.416 0.69 2.937-2.903 0.472c-0.212 0.025-0.387-0.003-0.526-0.085-0.145-0.079-0.26-0.228-0.344-0.445v0zM99.124 5.769l3.642-1.412 0.567 1.462c0.084 0.217 0.103 0.403 0.056 0.557-0.047 0.154-0.158 0.293-0.331 0.418v0l-2.462 1.608z" fill="#3e92cc" data-fill-palette-color="primary"></path><path d="M129.309 28.511v0c-2.014 0.209-3.874 0.054-5.582-0.466-1.714-0.519-3.235-1.338-4.564-2.46v0c-1.292-1.098-2.359-2.47-3.199-4.117-0.84-1.647-1.366-3.491-1.577-5.531v0c-0.214-2.06-0.077-3.976 0.408-5.747 0.486-1.771 1.247-3.34 2.284-4.706v0c1.069-1.376 2.39-2.491 3.962-3.343 1.565-0.859 3.354-1.392 5.368-1.602v0c2.007-0.208 3.884-0.055 5.632 0.461 1.753 0.508 3.278 1.327 4.573 2.459v0c1.328 1.121 2.398 2.5 3.211 4.136 0.812 1.637 1.325 3.485 1.539 5.545v0c0.212 2.04 0.088 3.951-0.37 5.733-0.458 1.782-1.223 3.344-2.296 4.687v0c-1.037 1.366-2.361 2.481-3.972 3.344-1.605 0.863-3.41 1.398-5.417 1.607zM128.972 25.261v0c2.007-0.208 3.691-0.818 5.053-1.829 1.361-1.018 2.345-2.376 2.952-4.072 0.608-1.69 0.799-3.631 0.571-5.825v0c-0.227-2.186-0.811-4.047-1.753-5.583-0.943-1.536-2.185-2.673-3.728-3.409-1.543-0.737-3.318-1.002-5.325-0.794v0c-1.987 0.206-3.66 0.828-5.019 1.866-1.359 1.038-2.348 2.406-2.969 4.104-0.621 1.698-0.818 3.64-0.592 5.826v0c0.227 2.193 0.818 4.046 1.772 5.561 0.955 1.521 2.203 2.647 3.745 3.378 1.541 0.724 3.306 0.983 5.293 0.777z" fill="#3e92cc" data-fill-palette-color="primary"></path><path d="M152.496 28.154l-3.717-0.542 3.973-27.214 7.75 1.132c2.148 0.314 3.916 0.861 5.303 1.642 1.379 0.787 2.373 1.794 2.981 3.02 0.615 1.227 0.801 2.674 0.557 4.342v0c-0.192 1.318-0.638 2.454-1.335 3.409-0.699 0.961-1.597 1.722-2.696 2.282-1.106 0.565-2.364 0.91-3.775 1.034v0c0.368 0.289 0.718 0.731 1.048 1.324v0l6.349 11.971-3.262-0.476c-0.685-0.1-1.141-0.439-1.366-1.017v0l-5.639-10.747c-0.186-0.337-0.396-0.586-0.628-0.748-0.232-0.162-0.602-0.28-1.109-0.354v0l-2.778-0.406zM156.042 3.867l-1.496 10.241 3.836 0.56c2.049 0.299 3.726 0.066 5.029-0.7 1.303-0.765 2.078-1.995 2.325-3.688v0c0.237-1.621-0.125-2.922-1.086-3.904-0.955-0.974-2.48-1.614-4.575-1.92v0zM166.599 27.185l-0.848 2.905-1.325-3.717zM149.916 27.777l-3.865-0.564 0.226-1.552c0.034-0.231 0.11-0.408 0.229-0.532 0.119-0.124 0.283-0.184 0.491-0.18v0l2.936-0.198zM150.024 0l3.865 0.564-0.847 2.895-2.759-1.018c-0.197-0.083-0.335-0.194-0.415-0.334-0.081-0.14-0.104-0.325-0.071-0.555v0zM155.234 28.554l-3.875-0.566 0.858-2.903 2.757 1.028c0.194 0.055 0.333 0.16 0.419 0.314 0.079 0.153 0.101 0.345 0.067 0.575v0zM169.616 30.654l-3.865-0.564 0.848-2.905 2.758 1.028c0.2 0.056 0.34 0.161 0.418 0.314 0.079 0.153 0.101 0.345 0.068 0.575v0z" fill="#3e92cc" data-fill-palette-color="primary"></path><path d="M178.971 33.816l-3.54-1.165 8.602-26.122 3.539 1.165zM176.523 33.01l-3.71-1.222 0.49-1.489c0.073-0.221 0.179-0.383 0.317-0.485 0.139-0.102 0.31-0.133 0.515-0.093v0l2.926 0.311zM181.627 34.691l-3.719-1.225 1.345-2.712 2.539 1.488c0.181 0.088 0.301 0.215 0.359 0.381 0.051 0.164 0.04 0.357-0.033 0.578v0zM181.414 5.667l3.71 1.221-1.332 2.706-2.543-1.479c-0.179-0.115-0.297-0.248-0.352-0.4-0.055-0.151-0.047-0.338 0.027-0.559v0zM186.51 7.344l3.719 1.225-0.49 1.49c-0.073 0.221-0.177 0.377-0.311 0.465-0.141 0.087-0.314 0.124-0.521 0.113v0l-2.924-0.321z" fill="#3e92cc" data-fill-palette-color="primary"></path><path d="M203.707 46.025l-18.184-9.592 0.68-1.29c0.096-0.183 0.213-0.339 0.35-0.47 0.14-0.122 0.307-0.233 0.503-0.333v0l23.996-12.112-13.466-7.102 1.412-2.678 17.778 9.377-0.643 1.22c-0.214 0.406-0.52 0.708-0.918 0.905v0l-23.977 12.076 13.881 7.321zM205.119 43.347l-3.231-0.619 2.294-3.128c0.156-0.181 0.316-0.278 0.48-0.289 0.167-0.017 0.342 0.022 0.524 0.119v0l1.564 0.825zM197.586 15.126l3.222 0.615-2.294 3.127c-0.132 0.194-0.286 0.293-0.462 0.298-0.179 0.011-0.36-0.032-0.542-0.128v0l-1.555-0.82z" fill="#3e92cc" data-fill-palette-color="primary"></path><path d="M215.825 56.81v0c-1.528-1.328-2.686-2.793-3.474-4.395-0.792-1.606-1.233-3.277-1.322-5.013v0c-0.081-1.694 0.193-3.41 0.822-5.149 0.629-1.739 1.616-3.383 2.961-4.931v0c1.358-1.563 2.85-2.773 4.475-3.628 1.625-0.855 3.291-1.371 4.997-1.547v0c1.735-0.16 3.452 0.043 5.148 0.609 1.696 0.556 3.308 1.498 4.837 2.826v0c1.523 1.324 2.694 2.799 3.511 4.427 0.827 1.627 1.27 3.3 1.33 5.019v0c0.089 1.736-0.187 3.459-0.827 5.171-0.64 1.711-1.639 3.349-2.998 4.912v0c-1.345 1.548-2.825 2.764-4.439 3.647-1.614 0.883-3.278 1.391-4.991 1.526v0c-1.706 0.176-3.425-0.029-5.156-0.616-1.726-0.582-3.351-1.535-4.874-2.859zM217.967 54.344v0c1.523 1.324 3.119 2.137 4.789 2.439 1.673 0.298 3.337 0.089 4.99-0.626 1.65-0.711 3.197-1.898 4.643-3.562v0c1.441-1.659 2.401-3.357 2.879-5.095 0.478-1.738 0.459-3.422-0.057-5.052-0.516-1.63-1.535-3.107-3.058-4.431v0c-1.508-1.31-3.105-2.107-4.792-2.39-1.686-0.283-3.361-0.071-5.026 0.636-1.664 0.707-3.217 1.89-4.658 3.549v0c-1.446 1.664-2.396 3.362-2.85 5.093-0.459 1.736-0.428 3.417 0.092 5.043 0.524 1.62 1.541 3.085 3.048 4.396z" fill="#3e92cc" data-fill-palette-color="primary"></path><path d="M231.457 73.033l-1.819-2.713 22.839-15.32 1.069 1.593c0.185 0.277 0.298 0.51 0.337 0.7 0.034 0.194-0.015 0.443-0.147 0.749v0l-8.342 24.757c0.251-0.224 0.505-0.431 0.763-0.62 0.258-0.189 0.506-0.363 0.743-0.523v0l16.178-10.851 1.814 2.704-22.839 15.32-1.046-1.56c-0.156-0.232-0.246-0.456-0.271-0.672-0.019-0.22 0.019-0.486 0.114-0.798v0l8.309-24.735c-0.24 0.193-0.483 0.38-0.73 0.561-0.247 0.182-0.478 0.345-0.694 0.49v0zM230.278 71.274l-2.176-3.244 1.302-0.873c0.194-0.13 0.376-0.192 0.548-0.188 0.172 0.005 0.326 0.086 0.464 0.243v0l2.117 2.044zM233.205 75.638l-2.176-3.244 2.723-1.321 1.088 2.734c0.093 0.186 0.109 0.36 0.048 0.521-0.06 0.161-0.188 0.306-0.381 0.436v0zM250.941 52.71l2.176 3.244-2.714 1.316-1.097-2.729c-0.071-0.201-0.081-0.378-0.032-0.532 0.049-0.153 0.171-0.295 0.365-0.425v0zM261.325 68.191l2.182 3.252-2.72 1.308-1.097-2.729c-0.067-0.196-0.078-0.373-0.032-0.532 0.049-0.153 0.171-0.295 0.365-0.425v0zM264.252 72.555l2.182 3.252-1.303 0.874c-0.194 0.13-0.373 0.186-0.537 0.168-0.161-0.012-0.321-0.09-0.48-0.232v0l-2.108-2.05z" fill="#3e92cc" data-fill-palette-color="primary"></path><path d="M247.631 102.607v0c-0.346-0.909-0.62-1.862-0.822-2.862-0.205-1.005-0.351-1.951-0.439-2.836-0.092-0.877-0.145-1.587-0.16-2.131v0l3.193-1.216 0.367 3.014c0.014 1.121 0.078 2.048 0.194 2.78 0.118 0.739 0.345 1.551 0.681 2.434v0c0.41 1.077 0.955 1.927 1.635 2.553 0.676 0.633 1.444 1.032 2.305 1.195 0.854 0.166 1.723 0.081 2.607-0.255v0c0.834-0.318 1.448-0.755 1.842-1.311 0.385-0.56 0.626-1.201 0.722-1.921 0.096-0.721 0.117-1.488 0.064-2.302-0.047-0.816-0.086-1.656-0.116-2.521v0c-0.036-1.105 0.018-2.227 0.161-3.365 0.138-1.136 0.519-2.165 1.144-3.087 0.619-0.92 1.631-1.648 3.038-2.183v0c1.413-0.538 2.796-0.687 4.149-0.447 1.347 0.242 2.559 0.843 3.636 1.8 1.078 0.958 1.926 2.249 2.544 3.874v0c0.391 1.027 0.701 2.213 0.928 3.559 0.224 1.354 0.309 2.683 0.257 3.985v0l-2.651 1.01-0.493-2.923c-0.08-0.846-0.201-1.669-0.364-2.469-0.169-0.798-0.362-1.483-0.58-2.056v0c-0.557-1.463-1.363-2.485-2.419-3.066-1.055-0.581-2.159-0.653-3.31-0.215v0c-1.002 0.382-1.661 0.982-1.976 1.801-0.322 0.821-0.467 1.767-0.436 2.838 0.022 1.068 0.043 2.171 0.064 3.311v0c0.049 1.271-0.013 2.474-0.186 3.609-0.17 1.126-0.57 2.134-1.201 3.023-0.639 0.885-1.662 1.595-3.068 2.131v0c-1.506 0.574-2.997 0.739-4.472 0.496-1.478-0.25-2.81-0.893-3.996-1.931-1.193-1.035-2.14-2.474-2.842-4.316zM269.308 100.999l3.382-1.897 0.22 3.272-3.258 1.241-0.626-1.643c-0.073-0.193-0.095-0.37-0.063-0.531 0.037-0.164 0.152-0.311 0.345-0.442zM253.005 94.937l-3.378 1.907-0.224-3.282 3.258-1.241 0.626 1.643c0.073 0.193 0.097 0.376 0.07 0.55-0.033 0.176-0.15 0.317-0.352 0.423z" fill="#3e92cc" data-fill-palette-color="primary"></path><path d="M16.684 198.658l-5.582-16.007 25.968-9.057 5.582 16.008-2.858 0.996-4.345-12.46-8.659 3.02 3.335 9.564-2.754 0.961-3.336-9.565-8.838 3.082 4.345 12.461zM19.542 197.661l-1.938-2.646 3.81-0.726c0.238-0.026 0.42 0.012 0.548 0.116 0.134 0.101 0.235 0.249 0.303 0.444v0l0.579 1.661zM36.232 189.121l3.435-1.8 0.127 3.277-3.301 1.152-0.579-1.661c-0.068-0.195-0.081-0.374-0.039-0.536 0.036-0.161 0.155-0.304 0.357-0.432zM36.162 170.991l1.286 3.688-2.958 0.588-0.372-2.918c-0.018-0.212 0.017-0.387 0.103-0.522 0.087-0.136 0.24-0.242 0.46-0.319v0zM11.48 183.735l-1.286-3.688 1.481-0.516c0.22-0.077 0.413-0.091 0.578-0.043 0.165 0.048 0.294 0.165 0.387 0.352v0l1.532 2.512z" fill="#3e92cc" data-fill-palette-color="primary"></path><path d="M27.679 217.248l-5.555-8.649 23.14-14.862 5.555 8.649c1.094 1.704 1.813 3.438 2.156 5.205 0.347 1.772 0.332 3.475-0.043 5.109v0c-0.357 1.662-1.075 3.219-2.153 4.672-1.072 1.448-2.48 2.732-4.222 3.851v0c-1.726 1.108-3.47 1.849-5.234 2.222-1.763 0.373-3.478 0.377-5.143 0.015v0c-1.642-0.338-3.197-1.034-4.664-2.086-1.464-1.047-2.743-2.422-3.837-4.126zM44.747 198.533l-18.046 11.591 3.525 5.489c1.094 1.704 2.4 2.93 3.919 3.68 1.517 0.759 3.158 1.035 4.924 0.827 1.77-0.203 3.582-0.899 5.437-2.091v0c1.849-1.188 3.239-2.548 4.17-4.08 0.935-1.527 1.373-3.137 1.313-4.832-0.051-1.693-0.623-3.391-1.717-5.095v0zM22.745 209.566l-2.111-3.287 1.32-0.847c0.196-0.126 0.38-0.185 0.551-0.176 0.172 0.008 0.324 0.092 0.459 0.251v0l2.076 2.086zM43.774 191.417l2.111 3.287-2.74 1.261-1.042-2.75c-0.067-0.203-0.074-0.38-0.021-0.533 0.052-0.152 0.177-0.292 0.373-0.417v0z" fill="#3e92cc" data-fill-palette-color="primary"></path><path d="M50.202 243.955v0c-1.646-1.496-2.748-3.155-3.306-4.977-0.558-1.822-0.608-3.658-0.149-5.509 0.454-1.846 1.396-3.555 2.826-5.127v0l11.25-12.373 2.749 2.5-11.223 12.343c-1.017 1.119-1.715 2.307-2.093 3.565-0.388 1.258-0.409 2.504-0.063 3.737 0.356 1.232 1.1 2.364 2.234 3.394v0c1.133 1.03 2.323 1.662 3.569 1.896 1.237 0.233 2.459 0.102 3.666-0.394 1.212-0.491 2.333-1.304 3.363-2.437v0l11.25-12.373 2.749 2.5-11.249 12.373c-1.461 1.606-3.095 2.721-4.905 3.345-1.805 0.619-3.631 0.727-5.479 0.324-1.853-0.397-3.582-1.326-5.189-2.787zM58.775 214.107l2.898 2.635-2.32 1.927-1.719-2.386c-0.117-0.178-0.17-0.348-0.159-0.509 0.006-0.165 0.088-0.334 0.245-0.506v0zM62.752 217.723l2.897 2.634-1.055 1.161c-0.157 0.172-0.317 0.27-0.481 0.291-0.159 0.026-0.333-0.01-0.522-0.109v0l-2.538-1.485zM72.227 226.338l2.898 2.635-2.32 1.927-1.719-2.386c-0.117-0.178-0.17-0.348-0.158-0.509 0.006-0.165 0.088-0.334 0.244-0.506v0zM76.204 229.954l2.897 2.634-1.055 1.161c-0.157 0.172-0.317 0.27-0.481 0.291-0.159 0.026-0.333-0.01-0.521-0.109v0l-2.539-1.485z" fill="#3e92cc" data-fill-palette-color="primary"></path><path d="M85.795 266.66l-3.502-1.358 9.946-25.64 3.502 1.358-4.44 11.446 13.812 5.358 4.44-11.446 3.502 1.359-9.947 25.64-3.502-1.359 4.524-11.66-13.812-5.358zM83.364 265.717l-3.642-1.413 0.567-1.462c0.084-0.217 0.198-0.373 0.342-0.467 0.144-0.094 0.317-0.116 0.519-0.067v0l2.906 0.463zM88.374 267.661l-3.651-1.416 1.485-2.639 2.458 1.618c0.177 0.097 0.289 0.23 0.338 0.399 0.043 0.167 0.022 0.358-0.062 0.576v0zM89.669 238.664l3.641 1.413-1.471 2.633-2.462-1.609c-0.173-0.124-0.283-0.264-0.331-0.417-0.047-0.154-0.029-0.34 0.055-0.557v0zM94.67 240.605l3.651 1.416-0.567 1.462c-0.084 0.217-0.196 0.367-0.335 0.449-0.145 0.079-0.32 0.108-0.526 0.085v0l-2.903-0.472zM100.64 272.419l-3.651-1.416 0.568-1.462c0.084-0.217 0.201-0.372 0.351-0.464 0.144-0.094 0.317-0.116 0.519-0.067v0l2.906 0.463zM105.679 274.374l-3.642-1.413 1.475-2.642 2.459 1.618c0.183 0.1 0.296 0.233 0.338 0.399 0.043 0.167 0.022 0.358-0.063 0.575v0zM106.936 245.363l3.651 1.416-1.472 2.633-2.462-1.609c-0.173-0.124-0.283-0.264-0.331-0.417-0.054-0.157-0.038-0.343 0.047-0.561v0zM111.984 247.321l3.641 1.413-0.567 1.462c-0.084 0.217-0.196 0.367-0.335 0.449-0.139 0.082-0.314 0.11-0.526 0.085v0l-2.902-0.472z" fill="#3e92cc" data-fill-palette-color="primary"></path><path d="M127.239 277.689v0c-2.014-0.209-3.803-0.742-5.367-1.601-1.571-0.859-2.892-1.974-3.962-3.344v0c-1.04-1.34-1.802-2.902-2.286-4.686-0.485-1.784-0.621-3.697-0.41-5.737v0c0.214-2.06 0.74-3.907 1.579-5.541 0.839-1.634 1.906-3.013 3.201-4.137v0c1.329-1.128 2.85-1.948 4.563-2.46 1.708-0.519 3.568-0.675 5.582-0.466v0c2.007 0.208 3.813 0.743 5.418 1.607 1.612 0.857 2.936 1.972 3.972 3.344v0c1.07 1.37 1.835 2.939 2.294 4.707 0.459 1.768 0.582 3.683 0.369 5.743v0c-0.212 2.04-0.724 3.885-1.538 5.535-0.814 1.65-1.883 3.022-3.209 4.116v0c-1.295 1.124-2.82 1.944-4.574 2.459-1.747 0.515-3.625 0.669-5.632 0.461zM127.576 274.439v0c2.007 0.208 3.781-0.043 5.321-0.754 1.541-0.717 2.782-1.844 3.725-3.38 0.942-1.529 1.527-3.39 1.754-5.583v0c0.227-2.186 0.036-4.127-0.571-5.824-0.607-1.697-1.591-3.064-2.949-4.102-1.359-1.038-3.042-1.661-5.049-1.869v0c-1.987-0.206-3.752 0.06-5.295 0.797-1.543 0.737-2.792 1.873-3.748 3.407-0.956 1.535-1.547 3.395-1.774 5.581v0c-0.227 2.193-0.03 4.128 0.593 5.807 0.622 1.685 1.613 3.043 2.972 4.074 1.36 1.025 3.034 1.64 5.021 1.846z" fill="#3e92cc" data-fill-palette-color="primary"></path><path d="M155.305 277.329l-3.716 0.542-3.974-27.213 7.75-1.131c2.148-0.314 3.999-0.294 5.551 0.057 1.547 0.36 2.787 1.04 3.72 2.042 0.94 1 1.532 2.334 1.776 4.001v0c0.192 1.318 0.091 2.534-0.305 3.648-0.395 1.121-1.038 2.107-1.931 2.958-0.898 0.858-2.005 1.548-3.322 2.07v0c0.436 0.172 0.897 0.495 1.383 0.969v0l9.507 9.656-3.262 0.477c-0.685 0.1-1.219-0.095-1.6-0.584v0l-8.476-8.687c-0.275-0.269-0.547-0.449-0.816-0.537-0.269-0.089-0.657-0.096-1.164-0.022v0l-2.778 0.406zM151.759 253.041l1.495 10.241 3.836-0.56c2.049-0.299 3.589-1.002 4.619-2.108 1.03-1.106 1.421-2.506 1.173-4.199v0c-0.237-1.621-0.956-2.765-2.156-3.431-1.193-0.66-2.838-0.837-4.934-0.531v0zM168.543 272.367l0.018 3.026-2.332-3.183zM152.725 277.705l-3.865 0.565-0.226-1.552c-0.034-0.231-0.011-0.422 0.067-0.576 0.079-0.153 0.218-0.257 0.419-0.313v0l2.757-1.029zM144.887 251.056l3.865-0.564 0.016 3.016-2.934-0.187c-0.212-0.023-0.377-0.09-0.494-0.2-0.117-0.111-0.193-0.281-0.226-0.513v0zM158.043 276.929l-3.874 0.566-0.008-3.028 2.936 0.197c0.202-0.003 0.365 0.058 0.491 0.181 0.119 0.124 0.195 0.301 0.229 0.532v0zM172.426 274.829l-3.865 0.564-0.018-3.026 2.936 0.197c0.208-0.003 0.372 0.057 0.491 0.181 0.119 0.124 0.195 0.301 0.229 0.532v0z" fill="#3e92cc" data-fill-palette-color="primary"></path><path d="M185.053 270.895l-3.539 1.165-8.602-26.122 3.54-1.165zM182.605 271.701l-3.71 1.222-0.49-1.49c-0.073-0.221-0.084-0.414-0.033-0.578 0.051-0.164 0.171-0.291 0.358-0.381v0l2.539-1.488zM187.71 270.02l-3.719 1.225-0.53-2.981 2.927-0.312c0.198-0.037 0.37-0.006 0.514 0.094 0.139 0.102 0.244 0.263 0.318 0.484v0zM170.294 246.801l3.71-1.222 0.535 2.968-2.923 0.321c-0.213 0.014-0.386-0.024-0.521-0.112-0.134-0.089-0.238-0.244-0.311-0.466v0zM175.389 245.123l3.719-1.225 0.491 1.49c0.073 0.221 0.082 0.408 0.026 0.559-0.062 0.154-0.179 0.287-0.352 0.4v0l-2.542 1.479z" fill="#3e92cc" data-fill-palette-color="primary"></path><path d="M212.78 257.416l-18.184 9.591-0.681-1.29c-0.096-0.183-0.16-0.367-0.191-0.554-0.022-0.184-0.019-0.385 0.01-0.604v0l3.554-26.643-13.466 7.103-1.412-2.677 17.778-9.377 0.643 1.219c0.214 0.406 0.291 0.829 0.229 1.269v0l-3.573 26.607 13.881-7.321zM211.368 254.739l-2.336 2.316-1.286-3.659c-0.062-0.231-0.051-0.417 0.033-0.559 0.08-0.148 0.212-0.27 0.394-0.366v0l1.564-0.825zM183.822 245.019l2.327-2.312 1.286 3.659c0.085 0.219 0.08 0.402-0.014 0.55-0.092 0.154-0.229 0.279-0.412 0.375v0l-1.555 0.82z" fill="#3e92cc" data-fill-palette-color="primary"></path><path d="M228.987 244.578v0c-1.528 1.328-3.14 2.27-4.837 2.825-1.701 0.56-3.417 0.763-5.148 0.609v0c-1.689-0.156-3.35-0.667-4.984-1.532-1.634-0.865-3.124-2.072-4.469-3.621v0c-1.358-1.563-2.348-3.21-2.967-4.938-0.62-1.729-0.898-3.45-0.835-5.164v0c0.084-1.741 0.525-3.412 1.322-5.013 0.787-1.602 1.945-3.067 3.474-4.394v0c1.523-1.324 3.148-2.276 4.874-2.859 1.727-0.592 3.445-0.797 5.156-0.615v0c1.731 0.155 3.399 0.668 5.004 1.541 1.605 0.873 3.087 2.091 4.446 3.654v0c1.345 1.548 2.342 3.183 2.991 4.904 0.649 1.721 0.92 3.44 0.813 5.156v0c-0.064 1.714-0.507 3.387-1.329 5.019-0.818 1.628-1.988 3.104-3.511 4.427zM226.844 242.112v0c1.523-1.324 2.551-2.79 3.085-4.401 0.529-1.615 0.554-3.292 0.077-5.029-0.473-1.733-1.433-3.431-2.879-5.095v0c-1.441-1.659-2.989-2.846-4.643-3.562-1.654-0.716-3.324-0.932-5.011-0.649-1.686 0.283-3.291 1.086-4.814 2.41v0c-1.508 1.31-2.52 2.781-3.036 4.411-0.516 1.63-0.54 3.319-0.072 5.065 0.468 1.746 1.422 3.449 2.864 5.108v0c1.446 1.664 2.994 2.842 4.645 3.533 1.655 0.697 3.324 0.901 5.006 0.614 1.678-0.293 3.27-1.095 4.778-2.405z" fill="#3e92cc" data-fill-palette-color="primary"></path><path d="M247.609 224.039l-1.82 2.713-22.84-15.319 1.069-1.593c0.185-0.277 0.359-0.469 0.519-0.578 0.167-0.105 0.416-0.154 0.749-0.147v0l26.071-1.675c-0.303-0.147-0.59-0.304-0.863-0.471-0.273-0.167-0.528-0.33-0.766-0.49v0l-16.178-10.851 1.814-2.704 22.84 15.319-1.046 1.56c-0.156 0.232-0.329 0.401-0.52 0.506-0.196 0.101-0.457 0.167-0.782 0.197v0l-26.038 1.697c0.269 0.149 0.535 0.303 0.797 0.462 0.262 0.16 0.501 0.312 0.716 0.456v0zM246.429 225.798l-2.176 3.244-1.302-0.874c-0.194-0.13-0.321-0.275-0.382-0.436-0.06-0.161-0.044-0.334 0.049-0.52v0l1.088-2.735zM249.356 221.434l-2.176 3.244-2.255-2.018 2.117-2.044c0.137-0.157 0.292-0.237 0.463-0.242 0.172-0.005 0.354 0.057 0.548 0.187v0zM221.413 213.722l2.176-3.244 2.247 2.013-2.109 2.05c-0.159 0.142-0.319 0.219-0.48 0.231-0.161 0.012-0.338-0.046-0.531-0.176v0zM231.797 198.241l2.182-3.252 2.241 2.021-2.109 2.05c-0.156 0.136-0.316 0.213-0.48 0.231-0.161 0.012-0.338-0.046-0.531-0.176v0zM234.724 193.878l2.182-3.253 1.302 0.874c0.194 0.13 0.313 0.274 0.359 0.433 0.049 0.153 0.039 0.331-0.032 0.532v0l-1.096 2.729z" fill="#3e92cc" data-fill-palette-color="primary"></path><path d="M266.384 190.775v0c-0.346 0.909-0.776 1.803-1.289 2.684-0.516 0.887-1.036 1.69-1.56 2.41-0.515 0.716-0.948 1.282-1.298 1.697v0l-3.193-1.217 1.731-2.494c0.736-0.846 1.304-1.581 1.705-2.204 0.404-0.63 0.774-1.387 1.111-2.271v0c0.41-1.077 0.569-2.074 0.478-2.993-0.083-0.923-0.392-1.731-0.926-2.426-0.527-0.693-1.233-1.207-2.116-1.544v0c-0.834-0.318-1.583-0.4-2.247-0.247-0.66 0.162-1.266 0.48-1.817 0.954-0.551 0.474-1.078 1.033-1.579 1.676-0.508 0.64-1.038 1.294-1.591 1.959v0c-0.708 0.849-1.495 1.651-2.359 2.405-0.858 0.756-1.827 1.271-2.908 1.543-1.074 0.275-2.314 0.145-3.721-0.391v0c-1.413-0.538-2.544-1.347-3.394-2.426-0.844-1.077-1.35-2.331-1.517-3.763-0.167-1.432 0.059-2.96 0.677-4.585v0c0.391-1.027 0.949-2.118 1.675-3.274 0.734-1.16 1.554-2.209 2.46-3.147v0l2.651 1.01-1.576 2.51c-0.503 0.685-0.96 1.38-1.372 2.086-0.405 0.708-0.717 1.348-0.935 1.921v0c-0.557 1.463-0.635 2.762-0.234 3.898 0.401 1.136 1.177 1.924 2.329 2.362v0c1.002 0.382 1.893 0.372 2.673-0.029 0.786-0.399 1.524-1.009 2.214-1.829 0.694-0.812 1.412-1.65 2.155-2.514v0c0.809-0.982 1.655-1.839 2.54-2.571 0.876-0.728 1.845-1.214 2.908-1.458 1.066-0.235 2.302-0.085 3.708 0.45v0c1.506 0.574 2.729 1.442 3.669 2.606 0.937 1.169 1.503 2.536 1.698 4.1 0.202 1.566-0.049 3.27-0.75 5.112zM249.132 177.554l-3.788-0.833 2.013-2.59 3.258 1.241-0.626 1.643c-0.073 0.193-0.176 0.339-0.306 0.439-0.137 0.098-0.321 0.131-0.551 0.1zM257.27 192.926l3.791 0.824-2.017 2.599-3.258-1.241 0.626-1.643c0.073-0.193 0.178-0.346 0.313-0.457 0.142-0.11 0.323-0.137 0.545-0.082z" fill="#3e92cc" data-fill-palette-color="primary"></path><path d="M4.241 143.119c0-5.868 4.757-10.624 10.625-10.624 5.868 0 10.624 4.757 10.624 10.624 0 5.868-4.757 10.624-10.624 10.625-5.868 0-10.624-4.757-10.625-10.625z" fill="#3e92cc" data-fill-palette-color="primary"></path><path d="M254.431 143.119c0-5.868 4.757-10.624 10.625-10.624 5.868 0 10.624 4.757 10.624 10.624 0 5.868-4.757 10.624-10.624 10.625-5.868 0-10.624-4.757-10.625-10.625z" fill="#3e92cc" data-fill-palette-color="primary"></path></g><g id="text-1"></g></svg></g><g transform="matrix(1,0,0,1,53.1494936,295.47557960113255)"><svg viewBox="0 0 171.97061280000003 14.34902476" height="14.34902476" width="171.97061280000003"><g transform="matrix(1,0,0,1,0,0)"><svg width="171.97061280000003" viewBox="0.15 -33.95 473.94 39.550000000000004" height="14.34902476" data-palette-color="#89939e"><path d="M25.2-20.35L25.2-20.35Q30.1-20.35 30.1-18.5L30.1-18.5Q30.1-18.1 29.8-17.6L29.8-17.6Q28.6-15.75 25.45-15.75L25.45-15.75Q23.4-15.75 21.25-16.48 19.1-17.2 18-18L18-18Q13.35-16.65 9.73-13.85 6.1-11.05 4.3-7.5L4.3-7.5Q3.35-5.6 3.35-3.8L3.35-3.8Q3.35-1 5.68 0.75 8 2.5 12.5 2.5L12.5 2.5Q13.75 2.5 15.1 2.35L15.1 2.35Q23.05 1.5 27.75-2.75L27.75-2.75Q31.7-6.25 31.7-10.1L31.7-10.1Q31.7-13.15 28.75-13.15L28.75-13.15Q25.2-13.15 20.6-9.35L20.6-9.35Q19.45-8.4 18.65-6.95 17.85-5.5 17.85-4.1 17.85-2.7 19.25-2.35L19.25-2.35Q19.75-2.15 19.75-1.85L19.75-1.85Q19.75-1.35 18.75-1.45L18.75-1.45Q16.35-1.5 16.35-4.6 16.35-7.7 19.5-10.4L19.5-10.4Q23.8-14.1 28.6-14.1L28.6-14.1Q32.2-14.1 33.15-11.85L33.15-11.85Q33.55-10.8 33.55-9.75L33.55-9.75Q33.55-5.1 28.4-1L28.4-1Q22.25 4 12.8 4L12.8 4Q6.95 4 3.55 1.83 0.15-0.35 0.15-3.85L0.15-3.85Q0.15-5.9 1.45-7.95L1.45-7.95Q6.05-15.25 17.15-18.8L17.15-18.8Q15.5-20.7 15.5-22.85 15.5-25 16.55-26.45L16.55-26.45Q18.6-29.25 22.7-31.05L22.7-31.05Q27.6-33.2 32.5-33.2L32.5-33.2Q35.35-33.2 37.08-32.27 38.8-31.35 38.8-29.43 38.8-27.5 37.38-26.18 35.95-24.85 34.4-24.85 32.85-24.85 32.85-25.6L32.85-25.6Q32.85-26.05 33.5-26.05L33.5-26.05 34.5-25.9Q35.5-25.9 36.33-26.98 37.15-28.05 37.15-29.2L37.15-29.2Q37.15-30.9 35.2-31.7L35.2-31.7Q33.95-32.2 32.85-32.2 31.75-32.2 31.3-32.15L31.3-32.15Q27-31.9 22.9-29.15L22.9-29.15Q18.1-26 18.1-22.05L18.1-22.05Q18.1-20.6 19.1-19.35L19.1-19.35Q22.3-20.35 25.2-20.35ZM19.95-18.55L19.95-18.55Q22.1-16.85 24.9-16.85 27.7-16.85 27.7-18.4L27.7-18.4Q27.7-19.1 25.2-19.1 22.7-19.1 19.95-18.55ZM50.95-15.15L50.95-15.15Q56.55-24.25 58.75-24.25L58.75-24.25Q59.1-24.25 59.72-24.03 60.35-23.8 60.35-23.35L60.35-23.35Q60.35-23.1 60.1-22.7L60.1-22.7Q56.1-17.8 54.15-15.35L54.15-15.35Q48.25-7.9 47.65-4.65L47.65-4.65Q47.5-3.95 47.5-3.25L47.5-3.25Q47.5-1 49.35-1L49.35-1Q53.05-1 59-7.85L59-7.85Q59.5-8.35 59.85-8.43 60.2-8.5 60.2-8.25 60.2-8 59.9-7.65L59.9-7.65Q54.1-0.7 49.6 0.1L49.6 0.1Q49.35 0.15 48.9 0.15L48.9 0.15Q47.35 0.15 46.57-0.93 45.8-2 45.8-3.25L45.8-3.25Q45.8-4.65 46.35-6.35L46.35-6.35 42.3-2.3Q39.55 0.25 37.97 0.25 36.4 0.25 35.35-0.6L35.35-0.6Q34.1-1.55 34.1-3.25L34.1-3.25Q34.1-6.9 39.2-11.98 44.3-17.05 48.55-17.05L48.55-17.05Q49.95-17.05 50.5-16.3L50.5-16.3Q50.7-16.05 50.95-15.15ZM36.2-2.65L36.2-2.65Q36.2-0.85 37.45-0.85L37.45-0.85Q39.6-0.85 44.6-6.75L44.6-6.75Q45.5-7.8 50.6-14.6L50.6-14.6Q50.25-15.2 49.4-15.2L49.4-15.2Q46.3-15.2 41.25-10.48 36.2-5.75 36.2-2.65ZM71.9 0.3L71.9 0.3Q71.65 0.35 70.82 0.35 70 0.35 69.17-0.3 68.35-0.95 68.35-1.98 68.35-3 68.72-4.25 69.1-5.5 69.25-6.15L69.25-6.15Q63.5 0.55 60.25 0.55L60.25 0.55Q58.2 0.55 58-2L58-2Q58-2.2 58-2.35L58-2.35Q58-4.5 60.6-8.15L60.6-8.15Q59.15-6.85 57.65-5.15L57.65-5.15Q57.45-4.95 57.15-4.95L57.15-4.95Q56.95-4.95 56.95-5.2 56.95-5.45 57.4-6.05L57.4-6.05 64.3-14.15Q65.6-15.65 66.95-15.65 68.3-15.65 68.3-14.75L68.3-14.75Q68.3-14.4 68-14.1L68-14.1Q66-12.25 62.97-7.95 59.95-3.65 59.95-1.6L59.95-1.6Q59.95-0.7 60.55-0.7L60.55-0.7Q62.65-0.7 66.65-4.85L66.65-4.85Q68.05-6.25 71.85-11.03 75.65-15.8 76.85-15.8L76.85-15.8Q78.65-15.8 78.65-14.4L78.65-14.4Q78.65-13.9 76.55-11.5L76.55-11.5Q73.7-8.05 72.2-5.88 70.7-3.7 70.7-2.35 70.7-1 71.45-1L71.45-1Q71.8-1 72.25-1.2L72.25-1.2Q75.7-2.7 80.5-8.2L80.5-8.2Q80.8-8.55 81.1-8.55 81.4-8.55 81.4-8.22 81.4-7.9 81.05-7.5L81.05-7.5Q78.9-5 76-2.48 73.1 0.05 71.9 0.3ZM82.94 0.65L82.94 0.65Q82.39 0.65 81.94 0.5L81.94 0.5Q78.74-0.4 78.74-3.1L78.74-3.1Q78.74-6.6 83.14-11.2 87.54-15.8 91.04-15.8L91.04-15.8Q92.19-15.8 92.92-15.18 93.64-14.55 93.64-13.48 93.64-12.4 92.99-11.23 92.34-10.05 91.04-10.05 89.74-10.05 89.74-10.85L89.74-10.85Q89.74-11.4 90.42-12.53 91.09-13.65 91.09-13.73 91.09-13.8 90.94-13.8L90.94-13.8Q89.54-13.65 87.12-11.8 84.69-9.95 83.79-8.7L83.79-8.7 81.84-5.85Q81.34-5.05 81.12-3.95 80.89-2.85 80.89-2.3 80.89-1.75 81.52-1.05 82.14-0.35 83.29-0.35L83.29-0.35Q85.79-0.35 89.49-3.28 93.19-6.2 95.19-8.85L95.19-8.85Q95.44-9.15 95.79-9.15 96.14-9.15 96.14-8.95 96.14-8.75 95.89-8.45L95.89-8.45Q93.14-4.8 89.32-2.08 85.49 0.65 82.94 0.65ZM109.89-14.95L109.89-14.95 110.59-15.1Q111.14-15.1 111.64-14.65 112.14-14.2 112.14-13.95 112.14-13.7 109.04-9.13 105.94-4.55 105.94-2.75L105.94-2.75Q105.94-2.6 105.99-2.45L105.99-2.45Q106.24-1.3 107.09-1.3L107.09-1.3Q109.69-1.3 116.59-9.9L116.59-9.9Q116.74-10.1 116.94-10.1 117.14-10.1 117.14-9.73 117.14-9.35 116.69-8.75L116.69-8.75Q110.29-0.2 106.94-0.2L106.94-0.2Q106.49-0.2 106.09-0.35L106.09-0.35Q103.89-1.2 103.89-3.65L103.89-3.65Q103.89-4.5 104.09-5.35L104.09-5.35 100.99-2.35Q98.04 0.25 96.72 0.25 95.39 0.25 94.19-0.6L94.19-0.6Q92.84-1.6 92.84-3.25L92.84-3.25Q92.84-6.9 97.94-11.98 103.04-17.05 107.29-17.05L107.29-17.05Q108.94-17.05 109.49-15.9L109.49-15.9Q109.64-15.5 109.74-15.23 109.84-14.95 109.89-14.95ZM94.94-2.65L94.94-2.65Q94.94-0.85 96.19-0.85L96.19-0.85Q99.09-0.85 104.09-7.2L104.09-7.2 109.39-14.5Q108.99-15.2 108.09-15.2L108.09-15.2Q105.04-15.2 99.99-10.48 94.94-5.75 94.94-2.65ZM126.94-16.1L126.94-16.1 134.14-16.2Q134.29-16.1 134.29-16.05L134.29-16.05Q134.29-15.6 128.06-14.8 121.84-14 121.34-13.85L121.34-13.85Q120.39-13 117.84-8.78 115.29-4.55 115.29-2.6L115.29-2.6Q115.29-0.75 117.84-0.75L117.84-0.75Q119.04-0.75 120.99-1.5 122.94-2.25 123.99-2.9L123.99-2.9Q126.79-4.65 129.99-8.05L129.99-8.05Q130.69-8.75 130.94-8.75L130.94-8.75Q131.09-8.75 131.09-8.45 131.09-8.15 130.34-7.25L130.34-7.25Q127.74-4.05 124.49-2.1L124.49-2.1Q120.59 0.3 117.04 0.3L117.04 0.3Q115.49 0.3 114.51-0.38 113.54-1.05 113.54-3.1 113.54-5.15 115.34-8.72 117.14-12.3 118.09-14.05L118.09-14.05Q117.39-13.9 116.89-13.9L116.89-13.9Q115.44-13.9 115.44-15.05L115.44-15.05Q115.44-15.9 116.64-16.25L116.64-16.25Q116.79-16.25 117.09-16.3L117.09-16.3 119.99-16.3Q120.89-17.45 122.04-18.95L122.04-18.95Q123.44-20.75 123.94-20.75 124.44-20.75 125.19-20.35 125.94-19.95 125.94-19.4 125.94-18.85 123.54-16.15L123.54-16.15Q124.84-16.1 126.94-16.1ZM139.59-20.4Q140.34-20.4 141.01-19.93 141.69-19.45 141.69-18.8 141.69-18.15 141.06-17.68 140.44-17.2 139.69-17.2 138.94-17.2 138.31-17.75 137.69-18.3 137.69-19L137.69-19Q137.69-20.4 139.59-20.4L139.59-20.4ZM130.54 0.55L130.54 0.55Q127.99 0.55 127.99-2.75L127.99-2.75Q127.99-5.45 130.94-10.23 133.89-15 135.69-15.05L135.69-15.05Q136.19-15.05 136.81-14.65 137.44-14.25 137.44-13.85L137.44-13.85Q137.19-13.5 136.84-13.08 136.49-12.65 136.09-12.15 135.69-11.65 134.99-10.73 134.29-9.8 133.64-8.95L133.64-8.95Q129.89-4.1 129.89-2.27 129.89-0.45 131.14-0.45L131.14-0.45Q132.19-0.45 133.99-1.6L133.99-1.6Q138.19-4.2 140.64-7.3L140.64-7.3Q141.54-8.45 141.86-8.45 142.19-8.45 142.19-8.05 142.19-7.65 141.04-6.45 139.89-5.25 139.21-4.55 138.54-3.85 138.29-3.63 138.04-3.4 137.36-2.78 136.69-2.15 136.34-1.9 135.99-1.65 135.34-1.15 134.69-0.65 134.19-0.43 133.69-0.2 133.04 0.1L133.04 0.1Q131.99 0.55 130.54 0.55ZM153.08-10.6L153.08-10.6Q153.08-8.85 149.73-4.75L149.73-4.75Q145.78 0.1 142.98 0.1L142.98 0.1 142.18 0.1Q140.88 0.1 140.13-1.25L140.13-1.25Q139.53-2.2 139.53-3.35L139.53-3.35Q139.53-6.35 143.91-11.78 148.28-17.2 150.98-17.2L150.98-17.2Q153.53-17.2 153.53-14.5L153.53-14.5Q153.53-13.8 153.28-12.7L153.28-12.7Q153.33-12.55 154.23-12.55 155.13-12.55 156.98-13.5L156.98-13.5Q156.93-12.65 153.03-11.05L153.03-11.05Q153.08-10.85 153.08-10.6ZM149.83-13.2L149.83-13.2Q148.13-13.2 145.01-9.2 141.88-5.2 141.88-3.3 141.88-1.4 143.08-1.4L143.08-1.4Q145.23-1.4 148.53-5.3 151.83-9.2 151.83-10.9L151.83-10.9Q151.03-11.35 149.83-13.2ZM162.13-15.8L162.13-15.8Q163.48-15.8 163.48-14.75L163.48-14.75Q163.48-14.45 163.33-14.15L163.33-14.15Q158.83-7.9 157.93-4.7L157.93-4.7Q169.58-16.35 172.08-16.35L172.08-16.35Q172.33-16.4 172.53-16.4L172.53-16.4Q173.93-16.4 173.93-15.15L173.93-15.15Q173.93-14.9 173.83-14.65 173.73-14.4 171.83-11.95L171.83-11.95Q169.63-9.35 168.11-6.95 166.58-4.55 166.58-2.95 166.58-1.35 167.28-1.35L167.28-1.35Q169.48-1.35 174.93-7.4L174.93-7.4Q175.03-7.5 175.28-7.85L175.28-7.85Q176.03-8.75 176.18-8.75 176.33-8.75 176.33-8.25 176.33-7.75 175.63-6.95L175.63-6.95Q169.43 0.1 166.83 0.1L166.83 0.1Q164.38 0.1 164.38-2.6 164.38-5.3 166.38-8.8L166.38-8.8 169.58-14Q166.18-11.5 163.53-8.53 160.88-5.55 158.71-2.75 156.53 0.05 156.18 0.05L156.18 0.05Q155.43 0.05 155.01-0.58 154.58-1.2 154.58-2.13 154.58-3.05 155.23-4.6 155.88-6.15 156.88-8.35L156.88-8.35 153.88-5.2Q152.78-4.1 152.51-4.1 152.23-4.1 152.23-4.42 152.23-4.75 152.63-5.15L152.63-5.15Q154.48-7 155.83-8.7L155.83-8.7Q157.13-10.4 161.18-15.2L161.18-15.2Q161.63-15.8 162.13-15.8ZM215.78-1.35L215.78-1.35Q215.78 2 219.13 2L219.13 2Q223.63 2 229.98-4.5L229.98-4.5Q235.73-10.3 238.75-16.32 241.78-22.35 241.78-25.5L241.78-25.5Q241.78-26 241.68-26.5L241.68-26.5Q240.58-26.5 239.43-27.65L239.43-27.65 239.43-27.6Q238.68-28.2 238.68-28.83 238.68-29.45 239.18-29.85 239.68-30.25 240.48-30.25 241.28-30.25 241.6-29.63 241.93-29 242.43-28.5 242.93-28 242.88-27.8L242.88-27.8Q243.18-27.35 243.8-27.35 244.43-27.35 245.23-27.95 246.03-28.55 246.5-28.55 246.98-28.55 246.98-28.25L246.98-28.25Q246.98-27.7 246.03-27.2L246.03-27.2Q245.53-26.8 244.83-26.75L244.83-26.75 243.23-26.75Q243.83-24.7 243.83-23.8L243.83-23.8Q243.83-19.8 240-13.4 236.18-7 230.18-2.05L230.18-2.05Q224.13 3.05 219.2 3.05 214.28 3.05 214.28-1.75L214.28-1.75Q214.28-5.55 217.48-12.6L217.48-12.6 221.08-20.45 216.18-16.65Q213.88-14.75 211.5-12.48 209.13-10.2 203.23-3.1L203.23-3.1 197.43 4Q196.03 5.6 194.93 5.6L194.93 5.6Q194.08 5.6 194.08 4.5 194.08 3.4 194.98 1.65L194.98 1.65 204.63-12.25Q213.38-25.1 213.38-28.55L213.38-28.55Q213.38-30.45 209.88-30.45L209.88-30.45Q205.63-30.45 198.03-25.25L198.03-25.25Q193.93-22.45 190.83-18.23 187.73-14 187.73-11.23 187.73-8.45 191.43-8.45L191.43-8.45Q194.88-8.45 198.53-11.65L198.53-11.65Q199.83-12.75 200.03-12.75 200.23-12.75 200.18-12.4L200.18-12.4Q199.63-10.5 196.1-8.78 192.58-7.05 189.88-7.05L189.88-7.05Q189.18-7.05 188.93-7.1L188.93-7.1 188.88-7.1Q184.88-7.95 184.88-11.05 184.88-14.15 188.33-18.5L188.33-18.5Q194.43-26.2 204.03-29.95L204.03-29.95Q208.98-31.85 212.18-31.85L212.18-31.85Q216.13-31.85 216.13-29.25L216.13-29.25Q216.13-23.85 202.53-5.8L202.53-5.8Q197.98 0.25 197.93 0.25L197.93 0.25Q198.08 0.25 203.15-5.4 208.23-11.05 212.78-15.05L212.78-15.05Q214.53-16.6 218.83-20.75L218.83-20.75Q221.08-22.85 223.68-24.55L223.68-24.55Q224.33-24.95 225.55-24.95 226.78-24.95 227.23-24.25L227.23-24.25Q222.63-18.55 219.2-11.48 215.78-4.4 215.78-1.35ZM244.88-26.75L244.83-26.75 244.88-26.75ZM251.72-20.4Q252.47-20.4 253.15-19.93 253.82-19.45 253.82-18.8 253.82-18.15 253.2-17.68 252.57-17.2 251.82-17.2 251.07-17.2 250.45-17.75 249.82-18.3 249.82-19L249.82-19Q249.82-20.4 251.72-20.4L251.72-20.4ZM242.67 0.55L242.67 0.55Q240.12 0.55 240.12-2.75L240.12-2.75Q240.12-5.45 243.07-10.23 246.02-15 247.82-15.05L247.82-15.05Q248.32-15.05 248.95-14.65 249.57-14.25 249.57-13.85L249.57-13.85Q249.32-13.5 248.97-13.08 248.62-12.65 248.22-12.15 247.82-11.65 247.12-10.73 246.42-9.8 245.77-8.95L245.77-8.95Q242.02-4.1 242.02-2.27 242.02-0.45 243.27-0.45L243.27-0.45Q244.32-0.45 246.12-1.6L246.12-1.6Q250.32-4.2 252.77-7.3L252.77-7.3Q253.67-8.45 254-8.45 254.32-8.45 254.32-8.05 254.32-7.65 253.17-6.45 252.02-5.25 251.35-4.55 250.67-3.85 250.42-3.63 250.17-3.4 249.5-2.78 248.82-2.15 248.47-1.9 248.12-1.65 247.47-1.15 246.82-0.65 246.32-0.43 245.82-0.2 245.17 0.1L245.17 0.1Q244.12 0.55 242.67 0.55ZM265.22-16.1L265.22-16.1 272.42-16.2Q272.57-16.1 272.57-16.05L272.57-16.05Q272.57-15.6 266.35-14.8 260.12-14 259.62-13.85L259.62-13.85Q258.67-13 256.12-8.78 253.57-4.55 253.57-2.6L253.57-2.6Q253.57-0.75 256.12-0.75L256.12-0.75Q257.32-0.75 259.27-1.5 261.22-2.25 262.27-2.9L262.27-2.9Q265.07-4.65 268.27-8.05L268.27-8.05Q268.97-8.75 269.22-8.75L269.22-8.75Q269.37-8.75 269.37-8.45 269.37-8.15 268.62-7.25L268.62-7.25Q266.02-4.05 262.77-2.1L262.77-2.1Q258.87 0.3 255.32 0.3L255.32 0.3Q253.77 0.3 252.8-0.38 251.82-1.05 251.82-3.1 251.82-5.15 253.62-8.72 255.42-12.3 256.37-14.05L256.37-14.05Q255.67-13.9 255.17-13.9L255.17-13.9Q253.72-13.9 253.72-15.05L253.72-15.05Q253.72-15.9 254.92-16.25L254.92-16.25Q255.07-16.25 255.37-16.3L255.37-16.3 258.27-16.3Q259.17-17.45 260.32-18.95L260.32-18.95Q261.72-20.75 262.22-20.75 262.72-20.75 263.47-20.35 264.22-19.95 264.22-19.4 264.22-18.85 261.82-16.15L261.82-16.15Q263.12-16.1 265.22-16.1ZM278.87-0.2L278.87-0.2Q275.92-0.2 275.92-3.65L275.92-3.65Q275.92-5.6 277.29-7.98 278.67-10.35 280.67-13.55L280.67-13.55Q274.27-10.35 269.07-4.1L269.07-4.1Q266.17 0.25 265.67 0.25L265.67 0.25Q264.22 0.25 264.22-0.6L264.22-0.6Q264.22-1.05 264.82-2.2L264.82-2.2Q269.67-10.85 272.17-14.85L272.17-14.85Q278.12-24.4 280.57-25.2L280.57-25.2Q280.67-25.25 280.77-25.25L280.77-25.25Q281.42-25.25 281.67-24.2L281.67-24.2Q281.52-23.15 276.47-16.6L276.47-16.6Q271.22-9.95 270.52-7.9L270.52-7.9Q272.37-9.25 276.97-12.45L276.97-12.45Q281.92-15.9 283.52-15.9 285.12-15.9 285.12-14.65L285.12-14.65Q285.12-14.45 285.09-14.38 285.07-14.3 281.62-9.65 278.17-5 278.17-2.8L278.17-2.8Q278.17-1.65 279.02-1.65L279.02-1.65Q281.72-1.75 287.12-8.15L287.12-8.15Q287.57-8.6 287.79-8.6 288.02-8.6 288.02-8.3L288.02-8.3Q288.02-7.3 283.07-2.9L283.07-2.9Q279.97-0.2 278.87-0.2ZM298.87-10.6L298.87-10.6Q298.87-8.85 295.52-4.75L295.52-4.75Q291.57 0.1 288.77 0.1L288.77 0.1 287.97 0.1Q286.67 0.1 285.92-1.25L285.92-1.25Q285.32-2.2 285.32-3.35L285.32-3.35Q285.32-6.35 289.69-11.78 294.07-17.2 296.77-17.2L296.77-17.2Q299.32-17.2 299.32-14.5L299.32-14.5Q299.32-13.8 299.07-12.7L299.07-12.7Q299.12-12.55 300.02-12.55 300.92-12.55 302.77-13.5L302.77-13.5Q302.72-12.65 298.82-11.05L298.82-11.05Q298.87-10.85 298.87-10.6ZM295.62-13.2L295.62-13.2Q293.92-13.2 290.79-9.2 287.67-5.2 287.67-3.3 287.67-1.4 288.87-1.4L288.87-1.4Q291.02-1.4 294.32-5.3 297.62-9.2 297.62-10.9L297.62-10.9Q296.82-11.35 295.62-13.2ZM313.86 0.3L313.86 0.3Q313.61 0.35 312.79 0.35 311.96 0.35 311.14-0.3 310.31-0.95 310.31-1.98 310.31-3 310.69-4.25 311.06-5.5 311.21-6.15L311.21-6.15Q305.46 0.55 302.21 0.55L302.21 0.55Q300.16 0.55 299.96-2L299.96-2Q299.96-2.2 299.96-2.35L299.96-2.35Q299.96-4.5 302.56-8.15L302.56-8.15Q301.11-6.85 299.61-5.15L299.61-5.15Q299.41-4.95 299.11-4.95L299.11-4.95Q298.91-4.95 298.91-5.2 298.91-5.45 299.36-6.05L299.36-6.05 306.26-14.15Q307.56-15.65 308.91-15.65 310.26-15.65 310.26-14.75L310.26-14.75Q310.26-14.4 309.96-14.1L309.96-14.1Q307.96-12.25 304.94-7.95 301.91-3.65 301.91-1.6L301.91-1.6Q301.91-0.7 302.51-0.7L302.51-0.7Q304.61-0.7 308.61-4.85L308.61-4.85Q310.01-6.25 313.81-11.03 317.61-15.8 318.81-15.8L318.81-15.8Q320.61-15.8 320.61-14.4L320.61-14.4Q320.61-13.9 318.51-11.5L318.51-11.5Q315.66-8.05 314.16-5.88 312.66-3.7 312.66-2.35 312.66-1 313.41-1L313.41-1Q313.76-1 314.21-1.2L314.21-1.2Q317.66-2.7 322.46-8.2L322.46-8.2Q322.76-8.55 323.06-8.55 323.36-8.55 323.36-8.22 323.36-7.9 323.01-7.5L323.01-7.5Q320.86-5 317.96-2.48 315.06 0.05 313.86 0.3ZM334.16-16.1L334.16-16.1 341.36-16.2Q341.51-16.1 341.51-16.05L341.51-16.05Q341.51-15.6 335.29-14.8 329.06-14 328.56-13.85L328.56-13.85Q327.61-13 325.06-8.78 322.51-4.55 322.51-2.6L322.51-2.6Q322.51-0.75 325.06-0.75L325.06-0.75Q326.26-0.75 328.21-1.5 330.16-2.25 331.21-2.9L331.21-2.9Q334.01-4.65 337.21-8.05L337.21-8.05Q337.91-8.75 338.16-8.75L338.16-8.75Q338.31-8.75 338.31-8.45 338.31-8.15 337.56-7.25L337.56-7.25Q334.96-4.05 331.71-2.1L331.71-2.1Q327.81 0.3 324.26 0.3L324.26 0.3Q322.71 0.3 321.74-0.38 320.76-1.05 320.76-3.1 320.76-5.15 322.56-8.72 324.36-12.3 325.31-14.05L325.31-14.05Q324.61-13.9 324.11-13.9L324.11-13.9Q322.66-13.9 322.66-15.05L322.66-15.05Q322.66-15.9 323.86-16.25L323.86-16.25Q324.01-16.25 324.31-16.3L324.31-16.3 327.21-16.3Q328.11-17.45 329.26-18.95L329.26-18.95Q330.66-20.75 331.16-20.75 331.66-20.75 332.41-20.35 333.16-19.95 333.16-19.4 333.16-18.85 330.76-16.15L330.76-16.15Q332.06-16.1 334.16-16.1ZM388.81-29.6L388.81-29.6Q388.81-25.65 384.96-20.3L384.96-20.3Q381.96-16.1 376.98-13.55 372.01-11 367.81-11L367.81-11Q366.26-11 365.21-11.35L365.21-11.35Q363.11-8.65 358.46-2.9L358.46-2.9Q360.21-0.4 364.78 1.8 369.36 4 372.66 4 375.96 4 377.56 3.1L377.56 3.1Q379.76 1.95 379.76-0.2L379.76-0.2Q379.76-0.75 379.66-1.25 379.56-1.75 379.98-1.75 380.41-1.75 380.73-1.03 381.06-0.3 381.06 0.25L381.06 0.25Q381.06 2 379.21 3.55L379.21 3.55Q376.86 5.45 372.81 5.45 368.76 5.45 364.41 3.55 360.06 1.65 357.26-1.6L357.26-1.6Q353.26 2.4 349.66 2.4L349.66 2.4Q348.56 2.4 347.76 2L347.76 2Q346.01 1 346.01-1.8 346.01-4.6 348.33-8.7 350.66-12.8 352.01-13.05L352.01-13.05Q352.91-13.05 354.06-11L354.06-11 357.21-4.9Q359.86-8.4 362.76-12.55L362.76-12.55Q358.66-14.4 358.66-17.9L358.66-17.9Q358.66-20.8 361.01-22.6L361.01-22.6Q362.31-23.55 363.78-23.55 365.26-23.55 366.01-22L366.01-22Q366.16-21.7 366.03-21.63 365.91-21.55 365.86-21.6L365.86-21.6Q364.86-22.6 363.71-22.6L363.71-22.6Q363.66-22.6 363.61-22.6L363.61-22.6Q362.16-22.6 361.08-21.05 360.01-19.5 360.01-18.2L360.01-18.2Q360.01-18.05 360.01-17.9L360.01-17.9Q360.01-15.3 363.61-13.45L363.61-13.45Q364.21-14.3 365.53-16.28 366.86-18.25 367.61-19.35L367.61-19.35Q377.56-33.95 384.16-33.95L384.16-33.95Q388.81-33.95 388.81-29.6ZM384.36-33.1L384.36-33.1Q381.86-33.1 378.16-28.9L378.16-28.9Q375.61-25.95 372.18-20.98 368.76-16 366.01-12.45L366.01-12.45Q366.66-12.3 367.46-12.3L367.46-12.3Q370.96-12.3 375.46-14.7 379.96-17.1 382.56-20.75L382.56-20.75Q387.11-27.1 387.11-30.4L387.11-30.4Q387.11-32.4 385.36-32.95L385.36-32.95Q384.91-33.1 384.36-33.1ZM355.96-3.25L355.96-3.25Q354.76-4.9 353.46-7.48 352.16-10.05 351.73-10.55 351.31-11.05 351.16-11.05 351.01-11.05 350.96-11.05L350.96-11.05Q350.06-10.9 349.01-7.85 347.96-4.8 347.96-1.88 347.96 1.05 349.76 1.05L349.76 1.05Q351.06 1.05 352.88-0.3 354.71-1.65 355.96-3.25ZM389.6-20.4Q390.35-20.4 391.03-19.93 391.7-19.45 391.7-18.8 391.7-18.15 391.08-17.68 390.45-17.2 389.7-17.2 388.95-17.2 388.33-17.75 387.7-18.3 387.7-19L387.7-19Q387.7-20.4 389.6-20.4L389.6-20.4ZM380.55 0.55L380.55 0.55Q378 0.55 378-2.75L378-2.75Q378-5.45 380.95-10.23 383.9-15 385.7-15.05L385.7-15.05Q386.2-15.05 386.83-14.65 387.45-14.25 387.45-13.85L387.45-13.85Q387.2-13.5 386.85-13.08 386.5-12.65 386.1-12.15 385.7-11.65 385-10.73 384.3-9.8 383.65-8.95L383.65-8.95Q379.9-4.1 379.9-2.27 379.9-0.45 381.15-0.45L381.15-0.45Q382.2-0.45 384-1.6L384-1.6Q388.2-4.2 390.65-7.3L390.65-7.3Q391.55-8.45 391.88-8.45 392.2-8.45 392.2-8.05 392.2-7.65 391.05-6.45 389.9-5.25 389.23-4.55 388.55-3.85 388.3-3.63 388.05-3.4 387.38-2.78 386.7-2.15 386.35-1.9 386-1.65 385.35-1.15 384.7-0.65 384.2-0.43 383.7-0.2 383.05 0.1L383.05 0.1Q382 0.55 380.55 0.55ZM413.95-0.6L413.95-0.6Q410.55-0.6 410.55-3.75L410.55-3.75Q410.55-5.55 412.15-8.68 413.75-11.8 415.5-13.95L415.5-13.95Q412.4-12.45 408.35-8.53 404.3-4.6 402.7-0.3L402.7-0.3Q402.45 0.1 401.85 0.1L401.85 0.1Q400.65 0.1 400.65-1.25L400.65-1.25Q401.15-4 402.9-7.55L402.9-7.55Q403.45-8.7 406.15-14.25L406.15-14.25Q402.25-11.7 399.53-8.78 396.8-5.85 394.48-2.9 392.15 0.05 391.85 0.05L391.85 0.05Q391.2 0.05 390.73-0.55 390.25-1.15 390.25-1.75L390.25-1.75Q390.25-2.65 392.85-8.35L392.85-8.35 389.85-5.2Q388.75-4.1 388.48-4.1 388.2-4.1 388.2-4.42 388.2-4.75 388.6-5.15L388.6-5.15Q390.45-7 391.9-8.85 393.35-10.7 396.7-15.45L396.7-15.45Q397.25-16.2 398.25-16.2 399.25-16.2 399.25-15.25L399.25-15.25Q399.25-14.9 396.6-10.38 393.95-5.85 393.65-4.7L393.65-4.7Q395.7-6.95 399.8-10.75L399.8-10.75Q405.95-16.45 407.9-16.45L407.9-16.45Q408.5-16.45 409-16.1 409.5-15.75 409.5-15.33 409.5-14.9 407.55-11.55L407.55-11.55Q405.65-8.1 405.45-7.45L405.45-7.45Q411-12.1 411-12.15L411-12.15Q415.7-15.8 417.75-15.8L417.75-15.8Q418.35-15.8 418.88-15.43 419.4-15.05 419.4-14.55L419.4-14.55Q419.4-14.45 416.15-10.33 412.9-6.2 412.5-3.55L412.5-3.55Q412.4-2.65 412.85-2.2 413.3-1.75 414.48-1.75 415.65-1.75 417.93-3.38 420.2-5 422.55-7.75L422.55-7.75Q423.45-8.75 423.78-8.75 424.1-8.75 424.1-8.5L424.1-8.5Q424.1-8.15 423.65-7.7L423.65-7.7Q421.2-4.75 418.38-2.68 415.55-0.6 413.95-0.6ZM432.45-20.4Q433.2-20.4 433.87-19.93 434.55-19.45 434.55-18.8 434.55-18.15 433.92-17.68 433.3-17.2 432.55-17.2 431.8-17.2 431.17-17.75 430.55-18.3 430.55-19L430.55-19Q430.55-20.4 432.45-20.4L432.45-20.4ZM423.4 0.55L423.4 0.55Q420.85 0.55 420.85-2.75L420.85-2.75Q420.85-5.45 423.8-10.23 426.75-15 428.55-15.05L428.55-15.05Q429.05-15.05 429.67-14.65 430.3-14.25 430.3-13.85L430.3-13.85Q430.05-13.5 429.7-13.08 429.35-12.65 428.95-12.15 428.55-11.65 427.85-10.73 427.15-9.8 426.5-8.95L426.5-8.95Q422.75-4.1 422.75-2.27 422.75-0.45 424-0.45L424-0.45Q425.05-0.45 426.85-1.6L426.85-1.6Q431.05-4.2 433.5-7.3L433.5-7.3Q434.4-8.45 434.72-8.45 435.05-8.45 435.05-8.05 435.05-7.65 433.9-6.45 432.75-5.25 432.07-4.55 431.4-3.85 431.15-3.63 430.9-3.4 430.22-2.78 429.55-2.15 429.2-1.9 428.85-1.65 428.2-1.15 427.55-0.65 427.05-0.43 426.55-0.2 425.9 0.1L425.9 0.1Q424.85 0.55 423.4 0.55ZM445.95-16.1L445.95-16.1 453.15-16.2Q453.3-16.1 453.3-16.05L453.3-16.05Q453.3-15.6 447.07-14.8 440.85-14 440.35-13.85L440.35-13.85Q439.4-13 436.85-8.78 434.3-4.55 434.3-2.6L434.3-2.6Q434.3-0.75 436.85-0.75L436.85-0.75Q438.05-0.75 440-1.5 441.95-2.25 443-2.9L443-2.9Q445.8-4.65 449-8.05L449-8.05Q449.7-8.75 449.95-8.75L449.95-8.75Q450.1-8.75 450.1-8.45 450.1-8.15 449.35-7.25L449.35-7.25Q446.75-4.05 443.5-2.1L443.5-2.1Q439.6 0.3 436.05 0.3L436.05 0.3Q434.5 0.3 433.52-0.38 432.55-1.05 432.55-3.1 432.55-5.15 434.35-8.72 436.15-12.3 437.1-14.05L437.1-14.05Q436.4-13.9 435.9-13.9L435.9-13.9Q434.45-13.9 434.45-15.05L434.45-15.05Q434.45-15.9 435.65-16.25L435.65-16.25Q435.8-16.25 436.1-16.3L436.1-16.3 439-16.3Q439.9-17.45 441.05-18.95L441.05-18.95Q442.45-20.75 442.95-20.75 443.45-20.75 444.2-20.35 444.95-19.95 444.95-19.4 444.95-18.85 442.55-16.15L442.55-16.15Q443.85-16.1 445.95-16.1ZM458.54-1.8L456.94-0.75Q455.49 0.1 453.37 0.1 451.24 0.1 450.12-1.3 448.99-2.7 448.19-5.75L448.19-5.75Q447.29-4.85 446.94-4.85L446.94-4.85Q446.69-4.85 446.69-5.2 446.69-5.55 446.94-5.8L446.94-5.8Q448.59-7.85 452.54-11.7L452.54-11.7 458.84-17.6Q461.54-20.15 462.04-20.15L462.04-20.15Q463.64-20.15 463.64-18.95L463.64-18.95Q463.64-18.35 463.17-17.78 462.69-17.2 462.47-16.88 462.24-16.55 461.99-16.25L461.99-16.25Q461.09-14.7 460.17-9.85 459.24-5 458.74-3.1L458.74-3.1Q462.89-3.15 467.29-8.5L467.29-8.5Q467.79-9 468.04-9 468.29-9 468.29-8.68 468.29-8.35 467.84-7.8L467.84-7.8Q464.94-4.4 462.44-3.05L462.44-3.05Q460.94-2.3 458.54-1.8L458.54-1.8ZM450.19-6.3L450.19-6.3Q450.19-4.6 451.32-3.53 452.44-2.45 453.84-2.45 455.24-2.45 455.99-3L455.99-3Q456.99-3.55 457.97-7.6 458.94-11.65 459.14-14.75L459.14-14.75 459.34-16.45Q456.59-14.4 453.47-11.15 450.34-7.9 450.24-6.85L450.24-6.85Q450.19-6.55 450.19-6.3ZM471.99-3.15Q472.74-3.15 473.42-2.65 474.09-2.15 474.09-1.53 474.09-0.9 473.47-0.43 472.84 0.05 472.09 0.05 471.34 0.05 470.72-0.48 470.09-1 470.09-1.7L470.09-1.7Q470.09-3.15 471.99-3.15L471.99-3.15Z" opacity="1" transform="matrix(1,0,0,1,0,0)" fill="#89939e" class="slogan-text-1" data-fill-palette-color="secondary" id="text-1"></path></svg></g></svg></g></svg></g></svg></g></svg></g><defs></defs></svg><rect width="251.48257079409186" height="280" fill="none" stroke="none" visibility="hidden"></rect></g></svg></g></svg>